<?xml version="1.0" standalone="no"?>
<!DOCTYPE svg PUBLIC "-//W3C//DTD SVG 20010904//EN"
 "http://www.w3.org/TR/2001/REC-SVG-20010904/DTD/svg10.dtd">
<svg version="1.0" xmlns="http://www.w3.org/2000/svg"
 width="235.000000pt" height="45.000000pt" viewBox="0 0 235.000000 45.000000"
 preserveAspectRatio="xMidYMid meet">

<g transform="translate(0.000000,45.000000) scale(0.100000,-0.100000)"
fill="#000000" stroke="none">
<path d="M0 225 l0 -225 1175 0 1175 0 0 225 0 225 -1175 0 -1175 0 0 -225z
m1003 -91 c10 -10 -12 -44 -28 -44 -9 0 -15 10 -15 25 0 18 5 25 18 25 10 0
22 -3 25 -6z m47 -2 c0 -4 -5 -13 -12 -20 -9 -9 -9 -12 1 -12 7 0 15 9 18 20
3 12 14 20 27 20 17 0 18 -2 6 -10 -9 -6 -10 -10 -3 -10 6 0 14 4 17 8 2 4 56
9 118 10 77 1 108 -1 98 -8 -9 -6 -10 -10 -3 -10 6 0 15 5 18 10 3 6 16 9 28
9 17 -1 18 -2 5 -6 -22 -6 -24 -23 -3 -23 9 0 18 7 21 15 9 23 34 18 34 -7 0
-21 -5 -23 -65 -24 -57 -1 -65 1 -65 17 0 27 -20 23 -21 -3 l-2 -23 -4 23 c-5
26 -23 30 -23 4 0 -22 -40 -25 -40 -2 -1 12 -3 12 -11 -2 -11 -20 -39 -24 -39
-7 0 7 -7 8 -17 4 -30 -13 -123 -16 -123 -5 0 6 7 13 16 17 13 5 13 7 2 14
-10 7 -9 9 5 9 9 0 17 -4 17 -8z m520 -2 c0 -3 -7 -15 -15 -26 -14 -18 -14
-18 -15 6 l-1 25 -11 -22 c-13 -27 -48 -31 -48 -5 -1 16 -1 16 -11 0 -15 -27
-39 -22 -39 6 0 24 2 25 70 24 39 -1 70 -4 70 -8z m121 -8 c1 -15 2 -15 6 1 5
19 23 23 23 5 0 -9 3 -9 12 0 7 7 16 12 20 12 12 0 10 -38 -2 -45 -5 -3 -10 0
-10 7 0 8 -3 9 -8 3 -4 -5 -35 -11 -69 -12 -60 -1 -63 0 -63 22 0 21 5 23 45
23 35 0 45 -3 46 -16z"/>
<path d="M975 120 c-3 -5 -1 -10 4 -10 6 0 11 5 11 10 0 6 -2 10 -4 10 -3 0
-8 -4 -11 -10z"/>
<path d="M1165 120 c-3 -5 -1 -10 4 -10 6 0 11 5 11 10 0 6 -2 10 -4 10 -3 0
-8 -4 -11 -10z"/>
<path d="M1445 120 c-3 -5 -1 -10 4 -10 6 0 11 5 11 10 0 6 -2 10 -4 10 -3 0
-8 -4 -11 -10z"/>
<path d="M1610 120 c0 -5 7 -10 16 -10 8 0 12 5 9 10 -3 6 -10 10 -16 10 -5 0
-9 -4 -9 -10z"/>
</g>
</svg>
