<?xml version="1.0" standalone="no"?>
<!DOCTYPE svg PUBLIC "-//W3C//DTD SVG 20010904//EN"
 "http://www.w3.org/TR/2001/REC-SVG-20010904/DTD/svg10.dtd">
<svg version="1.0" xmlns="http://www.w3.org/2000/svg"
 width="600.000000pt" height="147.000000pt" viewBox="0 0 600.000000 147.000000"
 preserveAspectRatio="xMidYMid meet">

<g transform="translate(0.000000,147.000000) scale(0.100000,-0.100000)"
fill="#000000" stroke="none">
<path d="M659 1429 c-234 -31 -452 -195 -555 -416 -52 -111 -67 -188 -61 -328
3 -103 8 -132 35 -202 144 -386 573 -551 942 -363 102 52 190 131 275 245 56
75 96 116 132 134 27 14 3044 15 3142 1 l64 -9 141 -145 c130 -133 147 -147
226 -184 124 -58 207 -75 338 -70 128 6 215 33 327 102 310 194 397 610 194
922 -97 149 -224 243 -376 279 -106 26 -296 17 -416 -19 -173 -51 -280 -120
-359 -227 -30 -41 -71 -84 -97 -100 l-45 -29 -1561 0 -1561 0 -45 29 c-25 16
-66 53 -90 82 -97 118 -182 194 -259 232 -124 61 -260 84 -391 66z m4583 -218
l53 -68 60 -5 c65 -4 132 -32 176 -74 l26 -25 76 17 c58 13 80 14 90 6 25 -21
77 -136 80 -176 2 -38 -1 -41 -58 -82 -60 -42 -60 -43 -67 -102 -7 -62 -32
-123 -75 -180 l-25 -33 16 -71 c15 -65 15 -73 1 -88 -20 -22 -125 -70 -169
-77 -31 -5 -36 -1 -85 61 -44 54 -58 66 -82 66 -44 0 -134 35 -187 72 l-47 34
-84 -9 c-66 -7 -86 -6 -95 4 -20 22 -56 115 -62 161 -6 43 -6 43 55 91 44 33
61 54 61 70 0 43 30 125 63 175 33 49 33 49 24 120 -11 82 -8 94 29 119 24 15
147 62 166 63 4 0 31 -31 60 -69z m-4367 -66 c32 -9 80 -29 106 -44 46 -29 47
-29 105 -15 32 7 62 14 66 14 17 0 77 -95 88 -141 l12 -51 -41 -42 c-40 -40
-41 -44 -41 -107 0 -75 -21 -155 -57 -217 -35 -59 -135 -147 -199 -173 -51
-22 -54 -24 -65 -74 l-12 -52 -61 -21 c-55 -20 -66 -20 -115 -9 -52 12 -55 14
-70 57 -22 62 -24 64 -84 98 -67 38 -137 115 -176 194 -29 56 -31 69 -31 165
l0 105 -35 42 c-40 50 -42 63 -16 115 19 36 83 101 100 101 4 0 34 -9 66 -20
53 -18 61 -19 79 -5 98 71 157 93 256 94 36 1 92 -6 125 -14z m3679 -259 c42
-17 63 -69 45 -109 -20 -44 -51 -52 -195 -52 l-133 0 -3 -45 -3 -45 -68 -3
c-42 -2 -74 2 -83 9 -18 15 -20 229 -2 247 18 18 398 17 442 -2z m-2657 -18
c43 -40 23 -118 -34 -133 l-28 -7 50 -43 50 -44 -84 -1 -83 0 -84 68 -83 67
47 3 c67 3 92 10 92 26 0 20 -23 26 -96 26 l-64 0 0 -95 0 -95 -80 0 -80 0 0
125 0 125 227 0 c219 0 227 -1 250 -22z m563 -103 l0 -125 -80 0 -80 0 0 50 0
50 -92 0 c-90 0 -91 0 -73 20 15 17 31 20 92 20 72 0 73 1 73 25 l0 26 -92 -3
-93 -3 -3 -92 -3 -93 -79 0 -80 0 0 103 c0 157 -19 147 271 147 l239 0 0 -125z
m480 110 c77 -40 79 -155 4 -214 -25 -20 -39 -21 -235 -21 l-209 0 0 125 0
125 205 0 c165 0 212 -3 235 -15z m580 8 c0 -4 -10 -17 -22 -30 -20 -21 -29
-23 -138 -23 -104 0 -120 -2 -144 -21 -17 -13 -26 -30 -26 -49 0 -19 9 -36 26
-49 24 -19 40 -21 165 -21 77 0 139 -3 139 -7 0 -3 -7 -15 -17 -25 -14 -16
-35 -18 -204 -18 -187 0 -188 0 -218 26 -60 50 -60 148 0 198 l31 26 204 0
c112 0 204 -3 204 -7z m550 -118 l0 -125 -80 0 -80 0 0 50 0 50 -92 0 c-90 0
-91 0 -73 20 15 17 31 20 92 20 72 0 73 1 73 25 l0 26 -92 -3 -93 -3 -3 -92
-3 -93 -79 0 -80 0 0 103 c0 157 -19 147 271 147 l239 0 0 -125z"/>
<path d="M4270 784 c0 -37 0 -37 21 -18 14 13 41 21 85 24 93 7 80 24 -21 28
l-85 3 0 -37z"/>
<path d="M2660 739 l0 -94 23 27 c17 21 33 27 75 31 58 5 92 28 92 62 0 40
-35 59 -116 63 l-74 4 0 -93z"/>
</g>
</svg>
