<?xml version="1.0" standalone="no"?>
<!DOCTYPE svg PUBLIC "-//W3C//DTD SVG 20010904//EN"
 "http://www.w3.org/TR/2001/REC-SVG-20010904/DTD/svg10.dtd">
<svg version="1.0" xmlns="http://www.w3.org/2000/svg"
 width="600.000000pt" height="147.000000pt" viewBox="0 0 600.000000 147.000000"
 preserveAspectRatio="xMidYMid meet">

<g transform="translate(0.000000,147.000000) scale(0.100000,-0.100000)"
fill="#000000" stroke="none">
<path d="M659 1429 c-234 -31 -452 -195 -555 -416 -52 -111 -67 -188 -61 -328
3 -103 8 -132 35 -202 144 -386 573 -551 942 -363 102 52 190 131 275 245 56
75 96 116 132 134 27 14 3044 15 3142 1 l64 -9 141 -145 c130 -133 147 -147
226 -184 124 -58 207 -75 338 -70 128 6 215 33 327 102 310 194 397 610 194
922 -97 149 -224 243 -376 279 -106 26 -296 17 -416 -19 -173 -51 -280 -120
-359 -227 -30 -41 -71 -84 -97 -100 l-45 -29 -1561 0 -1561 0 -45 29 c-25 16
-66 53 -90 82 -97 118 -182 194 -259 232 -124 61 -260 84 -391 66z m4583 -218
l53 -68 60 -5 c65 -4 132 -32 176 -74 l26 -25 76 17 c58 13 80 14 90 6 25 -21
77 -136 80 -176 2 -38 -1 -41 -58 -82 -60 -42 -60 -43 -67 -102 -7 -62 -32
-123 -75 -180 l-25 -33 16 -71 c15 -65 15 -73 1 -88 -20 -22 -125 -70 -169
-77 -31 -5 -36 -1 -85 61 -44 54 -58 66 -82 66 -44 0 -134 35 -187 72 l-47 34
-84 -9 c-66 -7 -86 -6 -95 4 -20 22 -56 115 -62 161 -6 43 -6 43 55 91 44 33
61 54 61 70 0 43 30 125 63 175 33 49 33 49 24 120 -11 82 -8 94 29 119 24 15
147 62 166 63 4 0 31 -31 60 -69z m-4367 -66 c32 -9 80 -29 106 -44 46 -29 47
-29 105 -15 32 7 62 14 66 14 17 0 77 -95 88 -141 l12 -51 -41 -42 c-40 -40
-41 -44 -41 -107 0 -75 -21 -155 -57 -217 -35 -59 -135 -147 -199 -173 -51
-22 -54 -24 -65 -74 l-12 -52 -61 -21 c-55 -20 -66 -20 -115 -9 -52 12 -55 14
-70 57 -22 62 -24 64 -84 98 -67 38 -137 115 -176 194 -29 56 -31 69 -31 165
l0 105 -35 42 c-40 50 -42 63 -16 115 19 36 83 101 100 101 4 0 34 -9 66 -20
53 -18 61 -19 79 -5 98 71 157 93 256 94 36 1 92 -6 125 -14z m1009 -276 c18
-14 26 -30 26 -53 0 -44 -20 -67 -64 -75 l-37 -6 58 -45 58 -45 -73 -3 -72 -3
-85 70 -85 70 67 3 c60 3 68 5 68 23 0 18 -8 20 -87 23 l-88 3 0 -96 0 -95
-75 0 -75 0 0 125 0 125 219 0 c206 0 220 -1 245 -21z m576 -104 l0 -125 -75
0 -75 0 0 50 0 50 -96 0 -97 0 26 20 c20 16 40 20 96 20 69 0 71 1 71 25 0 25
0 25 -99 25 -115 0 -111 4 -111 -117 l0 -73 -70 0 -70 0 0 109 c0 150 -17 141
272 141 l228 0 0 -125z m465 111 c61 -26 84 -110 45 -173 -31 -52 -64 -63
-190 -63 l-111 0 21 30 c19 27 27 30 75 30 46 0 56 4 74 26 12 15 21 32 21 39
0 7 -9 24 -21 39 -19 24 -26 26 -105 26 l-84 0 0 -95 0 -95 -75 0 -75 0 0 125
0 125 195 0 c147 0 204 -4 230 -14z m585 7 c0 -4 -10 -17 -22 -30 -20 -22 -29
-23 -145 -23 -110 0 -125 -2 -143 -20 -26 -26 -25 -60 1 -94 20 -26 21 -26
166 -26 l146 0 -23 -25 c-23 -25 -26 -25 -182 -25 -173 0 -214 9 -243 53 -41
63 -20 147 45 179 29 15 64 18 218 18 100 0 182 -3 182 -7z m560 -118 l0 -125
-75 0 -75 0 0 50 0 50 -96 0 -97 0 26 20 c20 16 40 20 96 20 69 0 71 1 71 25
0 25 0 25 -99 25 -115 0 -111 4 -111 -117 l0 -73 -70 0 -70 0 0 109 c0 150
-17 141 272 141 l228 0 0 -125z m499 100 c33 -34 36 -68 8 -101 l-25 -29 -139
-3 -138 -4 24 26 c20 21 34 26 90 28 58 3 66 5 66 23 0 18 -8 20 -97 23 l-98
3 0 -96 0 -95 -75 0 -75 0 0 126 0 125 220 -3 c204 -3 221 -4 239 -23z"/>
</g>
</svg>
