<?xml version="1.0" standalone="no"?>
<!DOCTYPE svg PUBLIC "-//W3C//DTD SVG 20010904//EN"
 "http://www.w3.org/TR/2001/REC-SVG-20010904/DTD/svg10.dtd">
<svg version="1.0" xmlns="http://www.w3.org/2000/svg"
 width="360.000000pt" height="92.000000pt" viewBox="0 0 360.000000 92.000000"
 preserveAspectRatio="xMidYMid meet">

<g transform="translate(0.000000,92.000000) scale(0.100000,-0.100000)"
fill="#000000" stroke="none">
<path d="M61 870 c-6 -27 -14 -68 -17 -90 l-7 -40 77 0 c42 0 76 -4 76 -9 0
-9 -126 -624 -137 -669 -5 -21 -3 -22 76 -22 47 0 81 4 81 10 0 6 18 10 39 10
37 0 42 3 68 50 15 27 33 50 38 50 6 0 10 -22 10 -50 0 -53 -4 -57 -38 -38
-20 10 -21 10 -8 -6 12 -14 24 -16 58 -11 28 4 121 -5 264 -26 213 -31 222
-32 253 -15 109 59 70 216 -53 216 -45 0 -91 -45 -98 -95 -4 -34 -1 -46 22
-73 15 -18 24 -32 20 -32 -28 0 -392 114 -401 126 -20 26 -44 15 -75 -36 -26
-42 -35 -50 -61 -50 -30 0 -30 1 -23 37 4 21 9 42 12 46 3 5 7 28 10 51 2 22
27 151 56 286 l52 245 81 3 81 3 17 82 c9 45 16 85 16 90 0 4 -108 7 -239 7
l-239 0 -11 -50z m101 -755 c4 -33 2 -36 -21 -33 -41 5 -42 68 -2 68 14 0 20
-9 23 -35z m15 -7 c-3 -8 -6 -5 -6 6 -1 11 2 17 5 13 3 -3 4 -12 1 -19z"/>
<path d="M638 904 c-49 -26 -64 -86 -30 -117 63 -57 173 52 113 112 -25 25
-46 26 -83 5z"/>
<path d="M1507 898 c-29 -46 -347 -626 -347 -632 0 -3 38 -6 83 -6 l84 0 27
50 27 50 95 0 c102 0 98 2 109 -62 l6 -38 86 0 85 0 -6 33 c-5 31 -86 614 -86
623 0 2 -34 4 -75 4 -67 0 -76 -2 -88 -22z m47 -355 l7 -63 -56 0 c-30 0 -55
3 -55 6 0 3 19 41 43 84 47 88 48 87 61 -27z"/>
<path d="M3127 883 c-2 -5 -7 -21 -11 -38 -4 -16 -9 -38 -12 -47 -3 -10 -1
-18 5 -18 6 0 11 7 11 17 0 14 3 14 22 -3 21 -19 21 -19 15 6 -4 16 -1 31 10
42 9 10 11 18 5 18 -6 0 -14 -4 -17 -10 -12 -19 -22 -10 -17 15 4 24 -2 34
-11 18z"/>
<path d="M1857 869 c7 -7 8 -21 2 -42 -19 -65 0 -60 20 5 7 20 20 39 29 41 9
3 -1 5 -22 6 -29 1 -37 -2 -29 -10z"/>
<path d="M2780 840 c-11 -40 -7 -60 11 -60 5 0 7 10 4 23 -4 15 -1 28 9 36 8
7 12 19 9 27 -9 25 -22 15 -33 -26z"/>
<path d="M2016 845 c-22 -23 -20 -52 5 -60 26 -9 61 21 57 49 -4 26 -40 33
-62 11z m41 -29 c-8 -19 -37 -21 -37 -3 0 7 5 18 12 25 15 15 33 -1 25 -22z"/>
<path d="M2196 825 c-4 -21 -5 -39 -2 -42 5 -5 10 5 22 45 2 6 11 12 19 12 13
0 15 -7 10 -32 -6 -32 -5 -32 10 -13 25 31 15 59 -21 63 -29 3 -32 0 -38 -33z"/>
<path d="M2389 833 c-5 -14 -8 -34 -6 -42 3 -11 8 -5 17 17 16 42 45 44 37 2
-7 -35 8 -41 17 -7 12 46 8 57 -24 57 -24 0 -33 -6 -41 -27z"/>
<path d="M2587 842 c-17 -19 -23 -51 -9 -53 25 -5 64 -4 66 1 2 3 7 20 11 38
6 30 5 32 -23 32 -16 0 -36 -8 -45 -18z m43 -17 c0 -16 -27 -32 -37 -22 -3 4
-3 13 0 22 8 20 37 20 37 0z"/>
<path d="M2932 848 c-15 -15 -16 -54 -2 -63 13 -8 50 3 50 15 0 4 -9 6 -20 3
-11 -3 -20 0 -20 6 0 6 14 11 31 11 24 0 30 4 27 18 -4 21 -48 28 -66 10z m43
-8 c3 -6 -4 -10 -17 -10 -18 0 -20 2 -8 10 19 12 18 12 25 0z"/>
<path d="M924 732 c-77 -27 -128 -73 -166 -149 -27 -55 -32 -77 -33 -138 0
-60 4 -77 25 -108 86 -126 312 -105 411 39 16 24 29 45 29 48 0 3 -36 6 -80 6
-62 0 -87 -4 -112 -20 -18 -11 -43 -20 -55 -20 -26 0 -67 36 -58 50 4 6 74 10
164 10 l159 0 6 31 c11 55 6 139 -9 168 -45 89 -163 123 -281 83z m114 -138
c44 -31 28 -44 -53 -44 -83 0 -93 9 -42 40 39 24 65 25 95 4z"/>
<path d="M2646 735 c-77 -27 -163 -121 -186 -203 -14 -52 -12 -137 4 -175 19
-46 77 -94 124 -102 43 -7 111 8 149 32 22 14 23 14 23 -6 0 -20 5 -21 78 -21
l77 0 48 233 c26 127 47 235 47 240 0 4 -36 7 -80 7 -64 0 -80 -3 -80 -15 0
-19 2 -19 -45 5 -45 23 -103 25 -159 5z m144 -151 c22 -21 18 -99 -7 -132 -71
-98 -194 -57 -164 55 23 84 120 128 171 77z"/>
<path d="M550 683 c-7 -32 -29 -140 -50 -241 l-38 -183 81 3 81 3 48 225 c26
124 47 231 47 238 1 8 -21 12 -78 12 l-80 0 -11 -57z"/>
<path d="M1775 713 c3 -16 12 -109 20 -208 9 -99 18 -195 21 -213 l5 -32 83 0
83 0 49 111 c26 61 52 113 56 115 4 3 8 -47 8 -111 l0 -116 87 3 88 3 117 230
c65 127 118 234 118 238 0 4 -34 7 -76 5 l-76 -3 -56 -132 c-31 -73 -60 -133
-64 -133 -4 0 -8 61 -8 135 l0 135 -83 0 -84 0 -61 -142 -61 -143 -1 120 c0
172 4 165 -91 165 l-78 0 4 -27z"/>
<path d="M3046 723 c2 -10 22 -114 44 -232 l40 -215 -25 -38 c-23 -35 -29 -38
-70 -38 -31 0 -47 -5 -51 -15 -4 -8 -19 -15 -34 -15 -16 0 -32 -5 -35 -11 -5
-7 -13 -5 -25 6 -14 13 -29 15 -58 10 -25 -4 -119 5 -257 25 -120 17 -229 29
-243 25 -13 -3 -37 -19 -53 -35 -24 -23 -29 -37 -29 -75 0 -40 5 -52 34 -81
40 -40 83 -45 132 -15 58 35 65 110 16 165 -16 18 -16 18 3 13 11 -3 101 -29
200 -57 99 -29 184 -58 188 -66 16 -29 45 -15 74 36 23 41 33 50 56 50 25 0
27 -3 27 -45 0 -25 -5 -45 -11 -45 -6 0 -4 -7 5 -15 10 -10 36 -15 85 -15 58
0 74 4 95 22 21 20 436 659 436 673 0 3 -37 5 -83 5 l-82 0 -79 -137 c-90
-155 -86 -155 -105 2 -18 147 -8 135 -111 135 -79 0 -88 -2 -84 -17z m-162
-568 c18 -13 18 -15 -4 -49 -12 -20 -26 -36 -31 -36 -5 0 -9 23 -9 50 0 53 10
61 44 35z m211 -25 c8 -24 -10 -50 -34 -50 -13 0 -17 9 -17 35 0 30 3 35 22
35 14 0 25 -8 29 -20z m-60 -9 c3 -5 1 -12 -5 -16 -5 -3 -10 1 -10 9 0 18 6
21 15 7z"/>
<path d="M1120 170 c0 -5 5 -10 10 -10 6 0 10 5 10 10 0 6 -4 10 -10 10 -5 0
-10 -4 -10 -10z"/>
<path d="M1000 160 c0 -5 7 -10 16 -10 10 0 14 -6 11 -14 -3 -8 -9 -31 -13
-50 -10 -56 12 -44 27 14 9 37 18 50 31 50 10 0 18 5 18 10 0 6 -20 10 -45 10
-25 0 -45 -4 -45 -10z"/>
<path d="M1297 133 c-39 -62 -48 -83 -38 -83 5 0 13 5 16 10 3 6 17 10 31 10
13 0 24 -4 24 -10 0 -5 7 -10 16 -10 13 0 15 7 10 31 -3 17 -6 44 -6 60 0 41
-25 37 -53 -8z m33 -23 c0 -11 -7 -20 -15 -20 -18 0 -19 12 -3 28 16 16 18 15
18 -8z"/>
<path d="M1183 140 c-24 -10 -39 -50 -29 -75 7 -19 50 -19 66 0 11 13 8 14
-19 9 -19 -4 -31 -2 -31 4 0 6 17 12 37 14 41 3 51 18 28 42 -18 18 -21 18
-52 6z m37 -31 c0 -5 -9 -9 -20 -9 -22 0 -27 16 -7 23 15 5 27 -1 27 -14z"/>
<path d="M1554 127 c-18 -13 -24 -27 -22 -46 3 -23 8 -26 44 -29 38 -3 42 -1
48 25 4 15 9 35 12 44 7 26 -51 31 -82 6z m56 -22 c0 -19 -28 -38 -45 -31 -19
7 -19 20 0 40 17 17 45 11 45 -9z"/>
<path d="M1842 139 c-25 -9 -45 -50 -36 -74 8 -20 58 -19 75 1 12 15 10 16
-19 10 -28 -7 -32 -5 -32 12 0 27 27 49 42 34 15 -15 28 -15 28 -2 0 17 -34
28 -58 19z"/>
<path d="M1952 140 c-48 -20 -45 -90 3 -90 52 0 86 68 46 90 -22 12 -19 12
-49 0z m36 -46 c-5 -27 -48 -32 -48 -5 0 22 30 44 43 31 5 -4 7 -16 5 -26z"/>
<path d="M2079 143 c-22 -3 -29 -12 -37 -46 -6 -23 -9 -43 -7 -45 9 -9 24 10
30 37 6 30 30 48 40 30 4 -5 3 -23 0 -40 -10 -42 16 -35 27 8 8 32 33 50 43
32 4 -5 4 -23 0 -39 -10 -44 12 -37 24 8 9 31 8 39 -5 49 -12 9 -22 9 -36 2
-14 -8 -23 -8 -31 0 -6 6 -13 10 -16 10 -4 -1 -18 -4 -32 -6z"/>
<path d="M1101 103 c-13 -47 -13 -53 -1 -53 5 0 14 17 19 38 13 46 13 52 1 52
-5 0 -14 -17 -19 -37z"/>
<path d="M1390 95 c0 -52 19 -61 40 -17 l14 27 4 -27 c5 -39 25 -35 50 11 24
42 26 51 14 51 -5 0 -16 -15 -25 -32 l-16 -33 0 33 c-1 19 -6 32 -14 32 -7 0
-21 -15 -30 -32 l-16 -33 0 33 c-1 50 -21 38 -21 -13z"/>
<path d="M1671 90 c2 -28 -3 -56 -9 -62 -14 -14 -16 -31 -2 -26 14 5 101 131
94 137 -3 3 -16 -6 -28 -21 -27 -35 -36 -35 -36 -3 0 14 -5 25 -10 25 -7 0
-10 -20 -9 -50z"/>
<path d="M1750 60 c0 -5 4 -10 9 -10 6 0 13 5 16 10 3 6 -1 10 -9 10 -9 0 -16
-4 -16 -10z"/>
</g>
</svg>
